# xmcd CD database file
#
# Track frame offsets:
#	150
#	32373
#	57611
#	86477
#	106359
#	129332
#	136785
#	157690
#	182314
#	189730
#	220439
#	245620
#	271790
#
# Disc length: 3679 seconds
#
# Revision: 1
# Processed by: cddbd v1.5.2PL0 Copyright (c) Steve Scherf et al.
# Submitted via: CDex 1.70beta2
#
DISCID=a80e5d0d
DTITLE=Esther Kaiser - Songs of Courage
DYEAR=2018
DGENRE=Jazz
TTITLE0=Masters of War
TTITLE1=Earth Song
TTITLE2=Open Your Eyes, You Can Fly
TTITLE3=Where Have All the Flowers Gone
TTITLE4=This Is Not America
TTITLE5=Yamo (Syrian Theme)
TTITLE6=Luka
TTITLE7=Revolution
TTITLE8=An den kleinen Radioapparat
TTITLE9=Wandered Between the Worlds
TTITLE10=We Shall Overcome
TTITLE11=You're the Voice
TTITLE12=unbekannt
EXTD=YEAR: 2018
EXTT0=
EXTT1=
EXTT2=
EXTT3=
EXTT4=
EXTT5=
EXTT6=
EXTT7=
EXTT8=
EXTT9=
EXTT10=
EXTT11=
EXTT12=
PLAYORDER=
